<svg width="28" height="28" viewBox="0 0 28 28" fill="none" xmlns="http://www.w3.org/2000/svg">
<path d="M21.9333 11.5615C20.615 11.5615 19.4367 12.2032 18.7017 13.1832C17.9667 12.2032 16.7883 11.5615 15.47 11.5615C13.2417 11.5615 11.4333 13.3815 11.4333 15.6215C11.4333 16.4849 11.5733 17.2899 11.8067 18.0249C12.95 21.6532 16.4967 23.8349 18.2467 24.4299C18.4917 24.5115 18.9 24.5115 19.145 24.4299C20.895 23.8349 24.4417 21.6649 25.585 18.0249C25.83 17.2782 25.9583 16.4849 25.9583 15.6215C25.97 13.3815 24.1617 11.5615 21.9333 11.5615Z" fill="#FF6161"/>
<path d="M24.2084 9.73003C24.2084 9.99837 23.94 10.1734 23.6834 10.1034C22.1084 9.69503 20.3817 10.0334 19.075 10.9667C18.8184 11.1534 18.4684 11.1534 18.2234 10.9667C17.3017 10.29 16.1817 9.9167 15.0034 9.9167C11.9934 9.9167 9.54337 12.3784 9.54337 15.4117C9.54337 18.7017 11.1184 21.1634 12.705 22.8084C12.7867 22.89 12.7167 23.03 12.6117 22.9834C9.42671 21.8984 2.33337 17.395 2.33337 9.73003C2.33337 6.3467 5.05171 3.6167 8.41171 3.6167C10.4067 3.6167 12.1684 4.57337 13.2767 6.05503C14.3967 4.57337 16.1584 3.6167 18.1417 3.6167C21.49 3.6167 24.2084 6.3467 24.2084 9.73003Z" fill="#FFE600"/>
</svg>
