<svg width="30" height="28" viewBox="0 0 30 28" fill="none" xmlns="http://www.w3.org/2000/svg">
<path d="M17.0394 10.6009H8.25099C7.00755 10.6009 6.57551 9.76838 7.30261 8.75677L11.6968 2.60279C12.2131 1.86515 13.0772 1.86515 13.5936 2.60279L17.9878 8.75677C18.7149 9.76838 18.2828 10.6009 17.0394 10.6009Z" fill="white"/>
<path d="M18.5356 18.9677H6.75456C5.08961 18.9677 4.52058 17.8613 5.50058 16.5124L9.7051 10.6008H15.5851L19.7896 16.5124C20.7696 17.8613 20.2006 18.9677 18.5356 18.9677Z" fill="white"/>
<path d="M13.4355 18.9678V23.1828C13.4355 23.6149 13.0772 23.9732 12.6452 23.9732C12.2131 23.9732 11.8549 23.6149 11.8549 23.1828V18.9678H13.4355Z" fill="white"/>
<path d="M23.9129 17.5075H17.6355C16.7473 17.5075 16.4387 16.9129 16.958 16.1903L20.0967 11.7946C20.4656 11.2677 21.0828 11.2677 21.4516 11.7946L24.5903 16.1903C25.1097 16.9129 24.8011 17.5075 23.9129 17.5075Z" fill="#FF635E"/>
<path d="M24.9817 23.4839H16.5666C15.3774 23.4839 14.9709 22.6936 15.6709 21.7301L18.6742 17.5076H22.8742L25.8774 21.7301C26.5774 22.6936 26.1709 23.4839 24.9817 23.4839Z" fill="#FF635E"/>
<path d="M21.3387 23.4839V26.4946C21.3387 26.8032 21.0828 27.0592 20.7742 27.0592C20.4656 27.0592 20.2097 26.8032 20.2097 26.4946V23.4839H21.3387Z" fill="#FF635E"/>
</svg>
