<svg width="44" height="57" viewBox="0 0 44 57" fill="none" xmlns="http://www.w3.org/2000/svg">
    <path d="M27.7135 35.1253C27.3308 35.4597 26.8981 35.7689 26.4422 36.0371C25.9863 36.3053 25.5072 36.5325 25.0316 36.7029C21.6837 37.9255 17.8977 36.8919 15.5983 34.1274C15.2701 33.7376 14.9666 33.2967 14.7034 32.8321C14.4402 32.3676 14.2172 31.8794 14.0499 31.3948C12.8501 27.9836 13.8645 24.1259 16.5776 21.7829C16.9602 21.4485 17.3929 21.1393 17.8488 20.8711C18.3047 20.6029 18.7839 20.3757 19.2594 20.2053C22.4443 19.0421 26.0204 19.9261 28.3434 22.3851C28.5576 22.6053 28.8939 22.6624 29.1487 22.5126L30.731 21.5817C31.093 21.3688 31.1677 20.8694 30.8993 20.5536C27.6257 16.7956 22.2983 15.5028 17.6956 17.4453C17.2144 17.6373 16.7564 17.8703 16.3005 18.1385C15.8446 18.4067 15.4175 18.6944 15.0137 19.023C10.8489 22.2747 9.32228 28.0368 11.3413 32.9883C11.5297 33.4786 11.7584 33.9453 12.0216 34.4098C12.2848 34.8744 12.5671 35.3095 12.8896 35.7209C16.102 39.9704 21.7493 41.5122 26.6166 39.4687C27.0901 39.263 27.5558 39.0437 28.0117 38.7755C28.4677 38.5073 28.8947 38.2196 29.2985 37.891C33.2509 34.8008 34.8158 29.4533 33.2585 24.6856C33.1243 24.2909 32.6625 24.1071 32.3005 24.3201L30.7182 25.2509C30.45 25.4087 30.3304 25.7341 30.4239 26.0253C31.3447 29.291 30.2945 32.8964 27.7135 35.1253Z" fill="white"/>
    <path d="M24.9652 30.2749C24.6868 30.7302 24.3006 31.1213 23.8178 31.4053C23.3351 31.6893 22.8095 31.8345 22.2834 31.8526C21.6056 31.887 20.9287 31.7022 20.3586 31.3271C19.9118 31.0434 19.5279 30.6499 19.2492 30.158C18.9705 29.6661 18.828 29.1306 18.8103 28.5945C18.7765 27.9039 18.9579 27.2142 19.326 26.6333C19.6044 26.178 19.9906 25.7869 20.4734 25.5029C20.9561 25.2189 21.4817 25.0737 22.0078 25.0556C22.5685 25.0355 23.1375 25.1562 23.638 25.4083C23.8382 25.5092 24.0801 25.4944 24.2678 25.3839L25.9976 24.3663C26.3999 24.1297 26.4415 23.5405 26.0849 23.2583C24.4777 21.9995 22.3575 21.5708 20.38 22.1512C19.8889 22.2943 19.4021 22.5079 18.9462 22.7761C18.4768 23.0522 18.0653 23.3671 17.6981 23.7289C15.9866 25.4098 15.3179 27.9528 15.9675 30.2668C16.108 30.7671 16.3098 31.2496 16.5808 31.7278C16.8517 32.206 17.1609 32.6253 17.5159 32.9994C19.1655 34.7433 21.6614 35.4247 23.938 34.7412C24.4291 34.5981 24.9025 34.3925 25.3719 34.1164C25.8278 33.8482 26.2527 33.5253 26.6199 33.1636C28.1019 31.7088 28.7976 29.6235 28.5313 27.5758C28.4621 27.1065 27.9616 26.8544 27.546 27.0989L25.8162 28.1165C25.6284 28.227 25.4949 28.433 25.4805 28.6601C25.4446 29.2278 25.2761 29.7823 24.9652 30.2749Z" fill="white"/>
    <path d="M16.4569 15.2591L21.5432 24.2357C21.76 24.6183 21.5585 25.083 21.15 25.214C20.9256 25.2913 20.6956 25.3902 20.481 25.5164C20.2665 25.6426 20.0674 25.7962 19.8895 25.9555C19.5739 26.2504 19.0704 26.1823 18.8614 25.8134L13.775 16.8368C13.597 16.5225 13.6969 16.0994 14.0187 15.9101L15.5608 15.0029C15.8692 14.8215 16.2711 14.9312 16.4569 15.2591Z" fill="white"/>
    <path d="M23.8099 31.3916C24.0244 31.2653 24.2235 31.1118 24.4014 30.9525C24.717 30.6575 25.2204 30.7257 25.4295 31.0946L30.5158 40.0712C30.6939 40.3854 30.594 40.8086 30.2722 40.9979L28.7435 41.8972C28.4351 42.0786 28.0198 41.9768 27.834 41.6489L22.7476 32.6723C22.5309 32.2897 22.7324 31.825 23.1409 31.694C23.373 31.6303 23.5953 31.5178 23.8099 31.3916Z" fill="white"/>
</svg>
