<svg width="32" height="32" viewBox="0 0 32 32" fill="none" xmlns="http://www.w3.org/2000/svg">
    <path d="M25.7868 19.3201L24.4534 17.1067C24.1734 16.6134 23.9201 15.6801 23.9201 15.1334V11.7601C23.9201 8.62675 22.0801 5.92008 19.4268 4.65341C18.7334 3.42675 17.4534 2.66675 15.9868 2.66675C14.5334 2.66675 13.2268 3.45341 12.5334 4.69341C9.93342 5.98675 8.13342 8.66675 8.13342 11.7601V15.1334C8.13342 15.6801 7.88009 16.6134 7.60009 17.0934L6.25342 19.3201C5.72009 20.2134 5.60009 21.2001 5.93342 22.1067C6.25342 23.0001 7.01342 23.6934 8.00009 24.0267C10.5868 24.9067 13.3068 25.3334 16.0268 25.3334C18.7468 25.3334 21.4668 24.9067 24.0534 24.0401C24.9868 23.7334 25.7068 23.0267 26.0534 22.1067C26.4001 21.1867 26.3068 20.1734 25.7868 19.3201Z" fill="#565666"/>
    <path d="M19.7733 26.6801C19.2133 28.2267 17.7333 29.3334 16 29.3334C14.9467 29.3334 13.9067 28.9067 13.1733 28.1467C12.7467 27.7467 12.4267 27.2134 12.24 26.6667C12.4133 26.6934 12.5867 26.7067 12.7733 26.7334C13.08 26.7734 13.4 26.8134 13.72 26.8401C14.48 26.9067 15.2533 26.9467 16.0267 26.9467C16.7867 26.9467 17.5467 26.9067 18.2933 26.8401C18.5733 26.8134 18.8533 26.8001 19.12 26.7601C19.3333 26.7334 19.5467 26.7067 19.7733 26.6801Z" fill="#565666"/>
</svg>
