<svg width="32" height="32" viewBox="0 0 32 32" fill="none" xmlns="http://www.w3.org/2000/svg">
    <path d="M3.143 13.1073C2.61585 13.1073 2.17871 12.6701 2.17871 12.143V8.92871C2.17871 5.20014 5.213 2.17871 8.92871 2.17871H12.143C12.6701 2.17871 13.1073 2.61585 13.1073 3.143C13.1073 3.67014 12.6701 4.10728 12.143 4.10728H8.92871C6.26728 4.10728 4.10728 6.26728 4.10728 8.92871V12.143C4.10728 12.6701 3.67014 13.1073 3.143 13.1073Z" fill="white"/>
    <path d="M28.8574 13.1073C28.3302 13.1073 27.8931 12.6701 27.8931 12.143V8.92871C27.8931 6.26728 25.7331 4.10728 23.0716 4.10728H19.8574C19.3302 4.10728 18.8931 3.67014 18.8931 3.143C18.8931 2.61585 19.3302 2.17871 19.8574 2.17871H23.0716C26.7874 2.17871 29.8216 5.20014 29.8216 8.92871V12.143C29.8216 12.6701 29.3845 13.1073 28.8574 13.1073Z" fill="white"/>
    <path d="M23.0716 29.8216H21.143C20.6159 29.8216 20.1787 29.3844 20.1787 28.8573C20.1787 28.3301 20.6159 27.893 21.143 27.893H23.0716C25.733 27.893 27.893 25.733 27.893 23.0716V21.143C27.893 20.6159 28.3301 20.1787 28.8573 20.1787C29.3844 20.1787 29.8216 20.6159 29.8216 21.143V23.0716C29.8216 26.8001 26.7873 29.8216 23.0716 29.8216Z" fill="white"/>
    <path d="M12.143 29.8216H8.92871C5.213 29.8216 2.17871 26.8002 2.17871 23.0716V19.8574C2.17871 19.3302 2.61585 18.8931 3.143 18.8931C3.67014 18.8931 4.10728 19.3302 4.10728 19.8574V23.0716C4.10728 25.7331 6.26728 27.8931 8.92871 27.8931H12.143C12.6701 27.8931 13.1073 28.3302 13.1073 28.8574C13.1073 29.3845 12.6701 29.8216 12.143 29.8216Z" fill="white"/>
    <path d="M12.143 7.32153H9.57153C8.10582 7.32153 7.32153 8.09296 7.32153 9.57153V12.143C7.32153 13.6215 8.10582 14.393 9.57153 14.393H12.143C13.6087 14.393 14.393 13.6215 14.393 12.143V9.57153C14.393 8.09296 13.6087 7.32153 12.143 7.32153Z" fill="white"/>
    <path d="M22.4286 7.32153H19.8572C18.3915 7.32153 17.6072 8.09296 17.6072 9.57153V12.143C17.6072 13.6215 18.3915 14.393 19.8572 14.393H22.4286C23.8943 14.393 24.6786 13.6215 24.6786 12.143V9.57153C24.6786 8.09296 23.8943 7.32153 22.4286 7.32153Z" fill="white"/>
    <path d="M12.143 17.6072H9.57153C8.10582 17.6072 7.32153 18.3786 7.32153 19.8572V22.4286C7.32153 23.9072 8.10582 24.6786 9.57153 24.6786H12.143C13.6087 24.6786 14.393 23.9072 14.393 22.4286V19.8572C14.393 18.3786 13.6087 17.6072 12.143 17.6072Z" fill="white"/>
    <path d="M22.4286 17.6072H19.8572C18.3915 17.6072 17.6072 18.3786 17.6072 19.8572V22.4286C17.6072 23.9072 18.3915 24.6786 19.8572 24.6786H22.4286C23.8943 24.6786 24.6786 23.9072 24.6786 22.4286V19.8572C24.6786 18.3786 23.8943 17.6072 22.4286 17.6072Z" fill="white"/>
</svg>
