<svg width="26" height="26" viewBox="0 0 26 26" fill="none" xmlns="http://www.w3.org/2000/svg">
    <path fill-rule="evenodd" clip-rule="evenodd" d="M17.7468 0.439941H8.25342C3.83514 0.439941 0.253418 4.02166 0.253418 8.43994V17.9333C0.253418 22.3516 3.83514 25.9333 8.25342 25.9333H17.7468C22.165 25.9333 25.7468 22.3516 25.7468 17.9333V8.43994C25.7468 4.02166 22.165 0.439941 17.7468 0.439941ZM9.74675 15.9866C9.74675 16.5389 9.29903 16.9866 8.74675 16.9866C8.19446 16.9866 7.74675 16.5389 7.74675 15.9866V8.58661L5.17342 11.1466C4.92095 11.4015 4.5517 11.5023 4.20476 11.411C3.85782 11.3198 3.5859 11.0504 3.49143 10.7044C3.39695 10.3583 3.49428 9.98812 3.74675 9.73327L8.02675 5.46661C8.11923 5.37622 8.22775 5.30387 8.34675 5.25327C8.59347 5.14648 8.87337 5.14648 9.12008 5.25327C9.23909 5.30387 9.34761 5.37622 9.44008 5.46661L13.7067 9.73327C14.0739 10.1273 14.0631 10.7413 13.6822 11.1221C13.3014 11.5029 12.6874 11.5138 12.2934 11.1466L9.73342 8.58661L9.74675 15.9866ZM17.9868 20.5333L22.2668 16.2666H22.2534C22.6471 15.8799 22.653 15.2474 22.2668 14.8533C22.081 14.6627 21.8262 14.5552 21.5601 14.5552C21.294 14.5552 21.0391 14.6627 20.8534 14.8533L18.2801 17.4133V10.0133C18.2801 9.46099 17.8324 9.01327 17.2801 9.01327C16.7278 9.01327 16.2801 9.46099 16.2801 10.0133V17.4133L13.7201 14.8533C13.3261 14.4861 12.7121 14.497 12.3313 14.8778C11.9504 15.2586 11.9396 15.8726 12.3068 16.2666L16.5734 20.5333C16.6622 20.6282 16.7717 20.7012 16.8934 20.7466C17.0157 20.7987 17.1472 20.8259 17.2801 20.8266C17.4131 20.827 17.5448 20.7998 17.6668 20.7466C17.7885 20.7012 17.898 20.6282 17.9868 20.5333Z" fill="#565666"/>
</svg>
