<svg width="28" height="22" viewBox="0 0 28 22" fill="none" xmlns="http://www.w3.org/2000/svg">
    <path d="M22.4192 9.95899C22.0971 9.95899 21.7994 10.1308 21.6384 10.4098C21.4773 10.6887 21.4773 11.0324 21.6384 11.3114C21.7994 11.5903 22.0971 11.7622 22.4192 11.7622H27.1938H27.3335V9.93359H27.1938L22.4192 9.95899Z" fill="#565666" />
    <path d="M27.1937 14.1748H22.4191C20.5887 14.1748 19.1048 12.6909 19.1048 10.8605C19.1048 9.03005 20.5887 7.54619 22.4191 7.54619H27.1937H27.3334V5.41286C27.3334 2.60761 25.0593 0.333496 22.254 0.333496H5.74611C2.94086 0.333496 0.666748 2.60761 0.666748 5.41286V16.3081C0.666748 19.1134 2.94086 21.3875 5.74611 21.3875H22.254C25.0593 21.3875 27.3334 19.1134 27.3334 16.3081V14.1494L27.1937 14.1748Z" fill="#565666"/>
</svg>
