<svg width="30" height="30" viewBox="0 0 30 30" fill="none" xmlns="http://www.w3.org/2000/svg">
    <path d="M28.3013 15.7944C28.3013 23.5896 21.9811 29.9098 14.1826 29.9109C6.38962 29.9109 0.0694278 23.5896 0.0705572 15.7933C0.0682984 7.99695 6.38849 1.67676 14.1848 1.67676C21.9811 1.67676 28.3013 7.99808 28.3013 15.7944Z" fill="#FF9900"/>
    <path d="M19.7398 12.3362C19.5579 10.4455 17.9259 9.81191 15.8636 9.6312V7.00757H14.2678V9.56118C13.8488 9.56118 13.4196 9.56908 12.9938 9.57812V7.00757H11.3979L11.3968 9.62894C11.0512 9.63572 10.7112 9.64249 10.3803 9.64249V9.63459L8.17911 9.63346V11.3389C8.17911 11.3389 9.35821 11.3163 9.33788 11.3377C9.98504 11.3377 10.1951 11.7127 10.2561 12.0369V15.0253C10.3013 15.0253 10.3589 15.0275 10.4244 15.0366H10.2561L10.255 19.2233C10.2267 19.4266 10.107 19.7508 9.65525 19.7519C9.67558 19.77 8.49534 19.7519 8.49534 19.7519L8.17798 21.6583H10.2561C10.6424 21.6583 11.023 21.6651 11.3957 21.6674L11.3968 24.3204H12.9915V21.6956C13.4286 21.7047 13.8521 21.708 14.2666 21.708L14.2655 24.3204H15.8614V21.673C18.5448 21.5194 20.4253 20.8429 20.658 18.3221C20.8466 16.2925 19.8922 15.3856 18.3687 15.0196C19.2959 14.5498 19.8753 13.7197 19.7398 12.3362ZM17.5058 18.0081C17.5058 19.9902 14.1119 19.7654 13.0288 19.7654V16.2496C14.1119 16.2518 17.5058 15.9412 17.5058 18.0081ZM16.7626 13.0488C16.7626 14.8525 13.9301 14.6413 13.0288 14.6424V11.4552C13.9312 11.4552 16.7638 11.1683 16.7626 13.0488Z" fill="white"/>
    <path d="M10.2598 14.9548H10.4969V15.1299H10.2598V14.9548Z" fill="white"/>
</svg>
