<svg width="17" height="29" viewBox="0 0 17 29" fill="none" xmlns="http://www.w3.org/2000/svg">
    <path d="M0.874188 10.9372L7.54883 7.97067C7.84268 7.84473 8.17855 7.84473 8.45841 7.97067L15.1331 10.9372C15.7209 11.2031 16.2665 10.4894 15.8607 9.98567L8.86418 1.4359C8.38842 0.84819 7.60482 0.84819 7.12905 1.4359L0.132514 9.98567C-0.259292 10.4894 0.286479 11.2031 0.874188 10.9372Z" fill="#9188BE"/>
    <path d="M0.87412 19.0531L7.56277 22.0197C7.85662 22.1456 8.19249 22.1456 8.47235 22.0197L15.161 19.0531C15.7487 18.7873 16.2945 19.5009 15.8887 20.0047L8.89213 28.5544C8.41636 29.1422 7.63276 29.1422 7.157 28.5544L0.16046 20.0047C-0.259333 19.5009 0.272418 18.7873 0.87412 19.0531Z" fill="#9188BE"/>
    <path d="M7.70286 11.4826L1.92371 14.3652C1.40596 14.6171 1.40596 15.3587 1.92371 15.6106L7.70286 18.4932C7.89876 18.5911 8.13658 18.5911 8.33248 18.4932L14.1116 15.6106C14.6294 15.3587 14.6294 14.6171 14.1116 14.3652L8.33248 11.4826C8.12258 11.3847 7.89876 11.3847 7.70286 11.4826Z" fill="#9188BE"/>
</svg>
