<svg width="29" height="25" viewBox="0 0 29 25" fill="none" xmlns="http://www.w3.org/2000/svg">
    <path d="M28.5927 9.34689L25.2176 2.56868C24.5567 1.23273 22.7988 0.149902 21.3082 0.149902H8.56742C7.07678 0.149902 5.31895 1.23273 4.658 2.56868L1.28295 9.34689C0.467312 10.9782 0.917321 13.2985 2.25327 14.522L11.9987 23.3674C13.6159 24.8299 16.2456 24.8299 17.8628 23.3674L27.6083 14.522C28.9583 13.2985 29.4083 10.9641 28.5927 9.34689ZM20.5629 8.43281H15.9925V15.8157C15.9925 16.3923 15.5144 16.8704 14.9378 16.8704C14.3612 16.8704 13.8831 16.3923 13.8831 15.8157V8.43281H9.31274C8.73617 8.43281 8.25804 7.95468 8.25804 7.37811C8.25804 6.80155 8.73617 6.32341 9.31274 6.32341H20.5629C21.1394 6.32341 21.6176 6.80155 21.6176 7.37811C21.6176 7.95468 21.1394 8.43281 20.5629 8.43281Z" fill="#0DAE61"/>
</svg>
